<svg data-v-70b83f88="" version="1.0" xmlns="http://www.w3.org/2000/svg" xmlns:xlink="http://www.w3.org/1999/xlink" width="100%" height="100%" viewBox="0 0 340.000000 250.000000" preserveAspectRatio="xMidYMid meet" color-interpolation-filters="sRGB" style="margin: auto;"> <rect data-v-70b83f88="" x="0" y="0" width="100%" height="100%" fill="#fff" fill-opacity="1" class="background"></rect> <!----> <g data-v-70b83f88="" fill="#333" class="icon-text-wrapper icon-svg-group iconsvg" transform="translate(50.339996337890625,95.01139640808105)"><g class="iconsvg-imagesvg" transform="translate(0,0)"><g><rect fill="#333" fill-opacity="0" stroke-width="2" x="0" y="0" width="60" height="59.977208660708925" class="image-rect"></rect> <svg x="0" y="0" width="60" height="59.977208660708925" filtersec="colorsb5613841143" class="image-svg-svg primary" style="overflow: visible;"><svg xmlns="http://www.w3.org/2000/svg" viewBox="-0.02439192868769169 -0.00439166696742177 206.4888916015625 206.41061401367188"><title>资源 7</title><g fill-rule="evenodd"><path d="M176.24 176.18a102.91 102.91 0 0 1-76.44 30.16c-8.75-.29-10.94-10.72-6.79-17 17.92-27.07 75.72-28.09 101.23-60a56.23 56.23 0 0 0 10.57-21.88c.56-2.21 1.26-4.67 1.63-6.42a102.92 102.92 0 0 1-30.2 75.1z" fill="#03b2de" opacity=".48"></path><path d="M176.18 176.24a102.92 102.92 0 0 0 30.16-76.44c-.29-8.76-10.73-10.94-17-6.79C168.21 107 163 145.3 146.5 173.56c-9.44 16.21-25.92 31.19-45.38 32.82a102.78 102.78 0 0 0 75.06-30.14z" fill="#8e03ff" opacity=".48"></path><path d="M30.22 30.28A102.94 102.94 0 0 1 106.66.12c8.77.29 10.94 10.73 6.79 17-17.91 27.07-75.72 28.09-101.23 60A56.23 56.23 0 0 0 1.65 99c-.56 2.17-1.25 4.63-1.65 6.38a102.93 102.93 0 0 1 30.2-75.1z" fill="#00deb9" opacity=".48"></path><path d="M30.28 30.22A102.94 102.94 0 0 0 .12 106.66c.29 8.77 10.73 10.94 17 6.79 27.07-17.91 28.09-75.72 60-101.23A56.23 56.23 0 0 1 99 1.65c2.21-.56 4.67-1.25 6.42-1.63a102.93 102.93 0 0 0-75.1 30.2z" fill="#1d88e1" opacity=".48"></path><path d="M44 187.8c-32.11-55.4 181.83-82.46 145-142a103.71 103.71 0 0 0-26.5-27.07c25.84 44.36-100 69.18-138.89 106.54C12.3 136.12 10.9 151.63 20 164.34a103.82 103.82 0 0 0 24 23.46z" fill="#8e03ff" opacity=".48"></path><path d="M187.75 44c-51.41-29.78-77.2 148.08-127.43 150-4.47.18-9.6-2-14.56-5a103.71 103.71 0 0 1-27.07-26.5C71.5 193.28 96.63 9 148.17 12.54c4.69.32 10.6 3.57 16.11 7.51a104.32 104.32 0 0 1 23.47 24z" fill="#1d88e1" opacity=".48"></path></g></svg></svg> <!----></g></g> <g transform="translate(67,9.343603134155273)"><g data-gra="path-name" fill-rule="" class="tp-name iconsvg-namesvg"><g transform="scale(1)"><g><path d="M9.64-12L16.6-12 12.9-24.81Q12.73-25.47 12.41-26.48L12.41-26.48 13.79-26.48Q12.45-21.36 9.64-12L9.64-12ZM16.68-29.7L26.44-0.24 20.1-0.24 17.57-8.79 8.71-8.79 6.14-0.24 0-0.24 9.76-29.7 16.68-29.7ZM50.04-14.08L50.04-0.24 43.89-0.24 43.89-13.51Q43.89-19.16 40.84-19.16L40.84-19.16Q39.74-19.16 38.69-18.51 37.63-17.86 36.08-16.23L36.08-16.23 36.08-0.24 29.98-0.24 29.98-22.13 35.31-22.13 35.68-19.04 34.46-19.04Q38.12-22.7 42.43-22.7L42.43-22.7Q46.66-22.7 48.35-20.36 50.04-18.02 50.04-14.08L50.04-14.08ZM58.38 9.11L58.38 9.11Q56.34 9.11 54.96 8.54L54.96 8.54 55.69 5.49Q55.77 5.49 55.77 5.08L55.77 5.08Q57.64 5.82 58.09 5.82L58.09 5.82Q60.65 5.82 62 1.71L62 1.71 62.57-0.2 53.82-22.13 59.88-22.13Q64.31-9.84 64.9-7.93 65.49-6.02 66.06-4.31L66.06-4.31 64.76-4.31 66.51-10.54 70.13-22.13 75.99-22.13 67.98 0.98Q67.16 3.3 66.02 5.08 64.88 6.87 63.03 7.99 61.18 9.11 58.38 9.11ZM92.87 0.28L92.87 0.28Q88.68 0.28 85.45-1.65 82.21-3.58 80.53-6.94 78.84-10.29 78.84-14.89L78.84-14.89Q78.84-19.49 80.59-22.88 82.34-26.28 85.59-28.27 88.84-30.27 93.07-30.27L93.07-30.27Q96.29-30.27 98.65-29.05 101.01-27.82 101.98-26.73L101.98-26.73 99.05-23.27Q97.06-25.38 95.84-26.01 94.62-26.65 93.16-26.65L93.16-26.65Q89.94-26.65 87.54-23.68 85.14-20.71 85.14-15.05L85.14-15.05Q85.14-9.4 87.44-6.37 89.74-3.34 93.03-3.34L93.03-3.34Q94.66-3.34 96.09-4.09 97.51-4.84 99.71-7.2L99.71-7.2 102.59-3.78Q101.21-2.16 98.67-0.94 96.13 0.28 92.87 0.28ZM127.53-14.08L127.53-0.24 121.39-0.24 121.39-13.51Q121.39-19.16 118.34-19.16L118.34-19.16Q117.24-19.16 116.18-18.51 115.12-17.86 113.58-16.23L113.58-16.23 113.58-0.24 107.48-0.24 107.48-32.18 113.58-32.18Q113.58-23.88 113.46-20.5L113.46-20.5Q113.54-20.5 115.37-21.6 117.2-22.7 119.92-22.7L119.92-22.7Q124.15-22.7 125.84-20.36 127.53-18.02 127.53-14.08L127.53-14.08ZM140.22 0.28L140.22 0.28Q136.76 0.28 134.83-1.55 132.9-3.38 132.9-5.94L132.9-5.94Q132.9-12.53 146.28-13.91L146.28-13.91Q146.28-15.74 145.84-17 145.39-18.27 144.66-18.81 143.92-19.36 142.74-19.36L142.74-19.36Q141.32-19.36 139.86-18.77 138.39-18.18 135.87-16.52L135.87-16.52 134.08-19.77Q138.6-22.7 143.56-22.7L143.56-22.7Q152.43-22.7 152.43-13.46L152.43-13.46 152.43-0.24 147.1-0.24 146.69-2.81 147.87-2.81Q144.33 0.28 140.22 0.28ZM141.65-2.93L141.65-2.93Q143.6-2.93 146.28-5.37L146.28-5.37 146.28-11.39Q142.62-10.94 140.75-9.76 138.88-8.58 138.88-6.26L138.88-6.26Q138.88-2.93 141.65-2.93ZM167.32 0.28L167.32 0.28Q162.84 0.28 161.31-1.91 159.79-4.11 159.79-7.32L159.79-7.32 159.79-18.88 156.54-18.88 156.54-21.84 159.95-22.09 160.52-28.31 165.93-28.31 165.93-22.13 171.75-22.13 171.75-18.88 165.93-18.88 165.93-7.28Q165.93-2.97 168.45-2.97L168.45-2.97Q169.31-2.97 171.51-3.91L171.51-3.91 172.32-0.65Q169.8 0.28 167.32 0.28Z" transform="translate(0, 32.18000030517578)"></path></g> <!----> <!----> <!----> <!----> <!----> <!----> <!----></g></g> <!----></g></g><defs v-gra="od"></defs></svg>
