<svg data-v-70b83f88="" version="1.0" xmlns="http://www.w3.org/2000/svg" xmlns:xlink="http://www.w3.org/1999/xlink" width="100%" height="100%" viewBox="0 0 340.000000 250.000000" preserveAspectRatio="xMidYMid meet" color-interpolation-filters="sRGB" style="margin: auto;"> <rect data-v-70b83f88="" x="0" y="0" width="100%" height="100%" fill="#fff" fill-opacity="1" class="background"></rect> <!----> <g data-v-70b83f88="" fill="#333" class="iconblsvg-g iconsvg" transform="translate(58.971160888671875,101.71500396728516)"><g class="tp-name"><g data-gra="path-name" transform="translate(0, 2.6388819772793823)"><g transform="scale(1)"><path d="M9.64-12L16.6-12 12.9-24.81Q12.73-25.47 12.41-26.48L12.41-26.48 13.79-26.48Q12.45-21.36 9.64-12L9.64-12ZM16.68-29.7L26.44-0.24 20.1-0.24 17.57-8.79 8.71-8.79 6.14-0.24 0-0.24 9.76-29.7 16.68-29.7ZM50.04-14.08L50.04-0.24 43.89-0.24 43.89-13.51Q43.89-19.16 40.84-19.16L40.84-19.16Q39.74-19.16 38.69-18.51 37.63-17.86 36.08-16.23L36.08-16.23 36.08-0.24 29.98-0.24 29.98-22.13 35.31-22.13 35.68-19.04 34.46-19.04Q38.12-22.7 42.43-22.7L42.43-22.7Q46.66-22.7 48.35-20.36 50.04-18.02 50.04-14.08L50.04-14.08ZM58.38 9.11L58.38 9.11Q56.34 9.11 54.96 8.54L54.96 8.54 55.69 5.49Q55.77 5.49 55.77 5.08L55.77 5.08Q57.64 5.82 58.09 5.82L58.09 5.82Q60.65 5.82 62 1.71L62 1.71 62.57-0.2 53.82-22.13 59.88-22.13Q64.31-9.84 64.9-7.93 65.49-6.02 66.06-4.31L66.06-4.31 64.76-4.31 66.51-10.54 70.13-22.13 75.99-22.13 67.98 0.98Q67.16 3.3 66.02 5.08 64.88 6.87 63.03 7.99 61.18 9.11 58.38 9.11Z" transform="translate(0, 32.18000030517578)"></path></g></g> <g transform="translate(78.98999786376953, 0)"><g><g class="imagesvg"><g><rect fill="#333" fill-opacity="0" stroke-width="2" x="0" y="0" width="46.58768941852117" height="46.569992821249095" class="image-rect"></rect> <svg x="0" y="0" width="46.58768941852117" height="46.569992821249095" filtersec="colorsb8740143721" class="image-svg-svg primary" style="overflow: visible;"><svg xmlns="http://www.w3.org/2000/svg" viewBox="-0.02439192868769169 -0.00439166696742177 206.4888916015625 206.41061401367188"><title>资源 7</title><g fill-rule="evenodd"><path d="M176.24 176.18a102.91 102.91 0 0 1-76.44 30.16c-8.75-.29-10.94-10.72-6.79-17 17.92-27.07 75.72-28.09 101.23-60a56.23 56.23 0 0 0 10.57-21.88c.56-2.21 1.26-4.67 1.63-6.42a102.92 102.92 0 0 1-30.2 75.1z" fill="#03b2de" opacity=".48"></path><path d="M176.18 176.24a102.92 102.92 0 0 0 30.16-76.44c-.29-8.76-10.73-10.94-17-6.79C168.21 107 163 145.3 146.5 173.56c-9.44 16.21-25.92 31.19-45.38 32.82a102.78 102.78 0 0 0 75.06-30.14z" fill="#8e03ff" opacity=".48"></path><path d="M30.22 30.28A102.94 102.94 0 0 1 106.66.12c8.77.29 10.94 10.73 6.79 17-17.91 27.07-75.72 28.09-101.23 60A56.23 56.23 0 0 0 1.65 99c-.56 2.17-1.25 4.63-1.65 6.38a102.93 102.93 0 0 1 30.2-75.1z" fill="#00deb9" opacity=".48"></path><path d="M30.28 30.22A102.94 102.94 0 0 0 .12 106.66c.29 8.77 10.73 10.94 17 6.79 27.07-17.91 28.09-75.72 60-101.23A56.23 56.23 0 0 1 99 1.65c2.21-.56 4.67-1.25 6.42-1.63a102.93 102.93 0 0 0-75.1 30.2z" fill="#1d88e1" opacity=".48"></path><path d="M44 187.8c-32.11-55.4 181.83-82.46 145-142a103.71 103.71 0 0 0-26.5-27.07c25.84 44.36-100 69.18-138.89 106.54C12.3 136.12 10.9 151.63 20 164.34a103.82 103.82 0 0 0 24 23.46z" fill="#8e03ff" opacity=".48"></path><path d="M187.75 44c-51.41-29.78-77.2 148.08-127.43 150-4.47.18-9.6-2-14.56-5a103.71 103.71 0 0 1-27.07-26.5C71.5 193.28 96.63 9 148.17 12.54c4.69.32 10.6 3.57 16.11 7.51a104.32 104.32 0 0 1 23.47 24z" fill="#1d88e1" opacity=".48"></path></g></svg></svg> <!----></g></g></g></g> <g data-gra="path-name-1" fill="#333" transform="translate(128.57768630981445, 2.6388819772793823)"><g transform="scale(1)"><path d="M16.35 0.28L16.35 0.28Q12.16 0.28 8.93-1.65 5.7-3.58 4.01-6.94 2.32-10.29 2.32-14.89L2.32-14.89Q2.32-19.49 4.07-22.88 5.82-26.28 9.07-28.27 12.33-30.27 16.56-30.27L16.56-30.27Q19.77-30.27 22.13-29.05 24.49-27.82 25.47-26.73L25.47-26.73 22.54-23.27Q20.54-25.38 19.32-26.01 18.1-26.65 16.64-26.65L16.64-26.65Q13.42-26.65 11.02-23.68 8.62-20.71 8.62-15.05L8.62-15.05Q8.62-9.4 10.92-6.37 13.22-3.34 16.52-3.34L16.52-3.34Q18.14-3.34 19.57-4.09 20.99-4.84 23.19-7.2L23.19-7.2 26.08-3.78Q24.69-2.16 22.15-0.94 19.61 0.28 16.35 0.28ZM51.01-14.08L51.01-0.24 44.87-0.24 44.87-13.51Q44.87-19.16 41.82-19.16L41.82-19.16Q40.72-19.16 39.66-18.51 38.6-17.86 37.06-16.23L37.06-16.23 37.06-0.24 30.96-0.24 30.96-32.18 37.06-32.18Q37.06-23.88 36.94-20.5L36.94-20.5Q37.02-20.5 38.85-21.6 40.68-22.7 43.41-22.7L43.41-22.7Q47.64-22.7 49.32-20.36 51.01-18.02 51.01-14.08L51.01-14.08ZM63.7 0.28L63.7 0.28Q60.25 0.28 58.31-1.55 56.38-3.38 56.38-5.94L56.38-5.94Q56.38-12.53 69.77-13.91L69.77-13.91Q69.77-15.74 69.32-17 68.87-18.27 68.14-18.81 67.41-19.36 66.23-19.36L66.23-19.36Q64.8-19.36 63.34-18.77 61.87-18.18 59.35-16.52L59.35-16.52 57.56-19.77Q62.08-22.7 67.04-22.7L67.04-22.7Q75.91-22.7 75.91-13.46L75.91-13.46 75.91-0.24 70.58-0.24 70.17-2.81 71.35-2.81Q67.81 0.28 63.7 0.28ZM65.13-2.93L65.13-2.93Q67.08-2.93 69.77-5.37L69.77-5.37 69.77-11.39Q66.1-10.94 64.23-9.76 62.36-8.58 62.36-6.26L62.36-6.26Q62.36-2.93 65.13-2.93ZM90.8 0.28L90.8 0.28Q86.32 0.28 84.8-1.91 83.27-4.11 83.27-7.32L83.27-7.32 83.27-18.88 80.02-18.88 80.02-21.84 83.43-22.09 84-28.31 89.41-28.31 89.41-22.13 95.23-22.13 95.23-18.88 89.41-18.88 89.41-7.28Q89.41-2.97 91.94-2.97L91.94-2.97Q92.79-2.97 94.99-3.91L94.99-3.91 95.8-0.65Q93.28 0.28 90.8 0.28Z" transform="translate(-2.319999933242798, 32.18000030517578)"></path></g></g></g> <!----></g><defs v-gra="od"></defs></svg>
